# xmcd
#
# Track frame offsets: 
#        150
#        29681
#        53831
#        85778
#        120095
#        144198
#
# Disc length: 2264 seconds
#
# Revision: 10
# Processed by: cddbd v1.5.2PL0 Copyright (c) Steve Scherf et al.
# Submitted via: ExactAudioCopyFreeDBPlugin 1.0
#
DISCID=4108d606
DTITLE=Dexter Gordon - Go! {1999,RM,Blue Note,7243 4 98794 2 3}
DYEAR=1962
DGENRE=Jazz
TTITLE0=Cheese Cake
TTITLE1=I Guess I'll Hang My Tears Out To Dry
TTITLE2=Second Balcony Jump
TTITLE3=Love For Sale
TTITLE4=Where Are You
TTITLE5=Three O'Clock In The Morning
EXTD=Dexter Gordon - Tenor Sax\nSonny Clark - Piano\nButch Warren - Ba
EXTD=ss\nBilly Higgins - Drums YEAR: 1962
EXTT0=
EXTT1=
EXTT2=
EXTT3=
EXTT4=
EXTT5=
PLAYORDER=
